<?xml version="1.0" encoding="utf-8"?>
<!-- Generator: Adobe Illustrator 27.9.0, SVG Export Plug-In . SVG Version: 6.00 Build 0)  -->
<svg version="1.1" id="Layer_1" xmlns="http://www.w3.org/2000/svg" xmlns:xlink="http://www.w3.org/1999/xlink" x="0px" y="0px"
	 viewBox="0 0 899.5 350.3" style="enable-background:new 0 0 899.5 350.3;" xml:space="preserve">
<style type="text/css">
	.st0{fill:#4F5052;}
	.st1{fill:#EDEDEE;}
	.st2{fill:#ED3131;}
	.st3{fill:#DC2B27;}
	.st4{fill:#BFC1C3;}
	.st5{fill:#E11F27;}
	.st6{fill:#1FE272;}
	.st7{fill:#3C57F4;}
</style>
<g id="Слой_2">
	<g id="Layer_1_00000078018532728000905800000001369713302794807195_">
		<g id="Isolation_Mode">
			<path class="st0" d="M551.4,88c0,0-8.8,30.4,69.2,56.2s65.2,37.2,94.9,31.9s23.5-17.5,3.7-31.6S551.4,88,551.4,88z"/>
			<path class="st1" d="M270.6,224.4c-11.3,3-27.3,32.2-24.4,67.2c0,0,20.2,27.3,45.2,21.7c12.4-2.8,26.9-22.4,26.7-50.5
				S289.4,219.4,270.6,224.4z M297.4,273.1c-4.3,15.8-11.3,27-22.4,28.7s-12.1-13.5-12.1-13.5c-0.7-31.5,21.6-55.5,30.7-51.9
				S301.7,257.4,297.4,273.1z"/>
			<path class="st1" d="M190.9,290.6L168.5,267c0,0,17.6-47,55.2-54.6c0,0,10.4,5.1,11.1,15.3s-13.1,30.4-13.1,30.4
				s-12.4,16.5-36.1,23.2l3.8-16.4c0,0,27.7-7.5,32-43.2C221.4,221.8,182.5,246,190.9,290.6z"/>
			<path class="st1" d="M197.9,272.7c0,0-2.4,15.4,0,21.9s8.5,13,8.5,13s24.9-7.8,28.2-50.2c0,0-14.9,2.5-31.8,16.6l12.4-20.8
				c0,0,16.3-8.9,23.7-3.1s14.4,26.4,2.4,55.3S187,311,187,311l-4.3-40.4L197.9,272.7z"/>
			<path class="st1" d="M72.2,233.3l-17.2-7c-4.2,11.1-9.4,33.8-1.1,68.5c1.4,6.1,4.2,11.9,8.1,16.8c13.2-1.1,16-7,16-7
				c-1.6-2.7-3-5.5-4.1-8.5C66.3,273.8,67.7,248.2,72.2,233.3z"/>
			<path class="st1" d="M66.4,300.9c0,0,4.5-68.7,23-95.8c0,0,17-3.1,26.6,16.9s-13.5,84.4-13.5,84.4l-16.7-3.2
				c0,0,10.2-77,6.9-84.9s-20.9,37.4-17.5,87.2L66.4,300.9z"/>
			<path class="st1" d="M169.2,264.9c-2,8-19.2,37.9-24,17.1c-1.2-5.3,5.4-20.9,9.1-26.8c3.5-5.6-1.5-19.3-3.9-23.8l0,0
				c-1.5-2.7-5.4-2.5-9.3-1.2c-8.4,2.6-14.1,12.1-19.4,20.5c-4.1,6.7-7.5,13.8-10.2,21.2l-8.9,33.5c12.1-21.8,28.6-39.4,37.6-47.2
				c-22.2,42.5,6.2,46.2,6.2,46.2c18.3,1,34.4-32.7,34.4-32.7C180.8,271.4,169.2,264.9,169.2,264.9z"/>
			<path class="st1" d="M595.1,289.2c4.6,10.4,16.8,23.5,8.1,25.4c-13.6,3-19.2-14.8-19.2-14.8c-9.2-29.1,5-67.8,15-68.2
				c8-0.4,6.5,17.1-0.4,26.9l1,0.4c7.9,3.4,20.5-1.4,24.1-9.3c0.1-0.1,0.1-0.2,0.1-0.3c-3.9-36.3-40.5-29.1-52.6-10.7
				c-5.9,9-15,28.8-9.3,59.9c2.7,14.6,15.6,25,31.9,25c8.3,0,17.3-1.4,24.8-6.2c13.9-8.8,3.9-25.4,1.1-35.1
				C611.4,280.5,599.8,284.5,595.1,289.2z"/>
			<path class="st1" d="M852,216.4c-11.3,3-27.3,32.1-24.4,67.2c0,0,20.2,27.3,45.2,21.6c12.4-2.8,26.9-22.4,26.7-50.5
				S870.8,211.4,852,216.4z M878.8,265.1c-4.3,15.8-11.3,27-22.4,28.7s-12.1-13.5-12.1-13.5c-0.7-31.5,21.6-55.5,30.7-51.9
				S883.2,249.4,878.8,265.1L878.8,265.1z"/>
			<path class="st1" d="M771.5,289l-22.5-23.6c0,0,17.6-46.9,55.2-54.6c0,0,10.4,5.1,11.1,15.3s-13.2,30.4-13.2,30.4
				s-12.3,16.5-36.1,23.2l3.8-16.4c0,0,27.7-7.5,32-43.2C802,220.2,763.1,244.4,771.5,289z"/>
			<path class="st1" d="M778.5,271.1c0,0-2.4,15.4,0,21.9s8.5,13,8.5,13s24.8-7.8,28.2-50.2c0,0-14.9,2.5-31.8,16.6l12.4-20.8
				c0,0,16.3-8.9,23.7-3.1s14.4,26.4,2.4,55.3s-54.3,5.8-54.3,5.8l-4.3-40.4L778.5,271.1z"/>
			<path class="st1" d="M652.3,233l-17.2-7c-4.2,11.1-9.4,33.8-1.1,68.5c1.4,6.1,4.2,11.9,8.2,16.8c13.2-1.1,16-7,16-7
				c-1.7-2.7-3-5.5-4.1-8.5C646.5,273.5,647.9,248,652.3,233z"/>
			<path class="st1" d="M646.5,300.6c0,0,4.5-68.7,23-95.8c0,0,17-3.1,26.6,16.9s-13.5,84.4-13.5,84.4l-16.7-3.2
				c0,0,10.2-77,6.9-84.9s-20.9,37.4-17.5,87.2L646.5,300.6z"/>
			<path class="st1" d="M749.3,264.7c-2,8-19.2,37.9-24,17.1c-1.2-5.3,5.4-20.9,9.1-26.8c3.5-5.6-1.5-19.3-3.9-23.8l0,0
				c-1.5-2.7-5.4-2.5-9.3-1.2c-8.4,2.6-14.1,12.1-19.4,20.5c-4.1,6.7-7.5,13.8-10.2,21.2l-8.9,33.5c12.1-21.8,28.6-39.4,37.5-47.2
				c-22.2,42.5,6.2,46.2,6.2,46.2c18.3,1,34.4-32.7,34.4-32.7C760.9,271.1,749.3,264.7,749.3,264.7z"/>
			<path class="st1" d="M546.6,259.9c-10.8-1.5-20.1-0.7-26.1,4.1c5.9,10.4,22,25.4,4.8,28.5c-17.4,3.2-27.9-14.8-27.9-14.8
				c-2.1-5.3-3.3-10.9-3.7-16.6c19.8-3.4,35-10.2,42.1-16.6c9.7-8.8,11.5-21.6,4-31.5c-13.3-17.7-42.8-11.6-55.3,3.4
				c-7.5,9-19.2,28.8-11.9,59.9c3.4,14.6,20,24.9,40.8,25c10.6,0,22.1-1.4,31.7-6.2C563,286.3,550.2,269.6,546.6,259.9z M520,209.5
				c10.2-0.4,8.3,17.1-0.5,26.9c-6.7,6.4-18.5,10.3-25.4,12.6C496.6,228.1,511.2,209.8,520,209.5L520,209.5z"/>
			<path class="st1" d="M388,208.2c-6.9-3-14.5-4-22-2.9l0,0c-22.5,2.3-51.2,17.4-46.2,34.3c2.9,9.8,17.6,7.5,17.6,7.5
				c-1.6-5.2,0.3-10.8,3.8-15.9v0.1c0,0,16.8-23.9,42.3-15.9c14.8,4.6-5.1,52.1-27.5,49.4c-5.9-0.7-8.8-3.6-10.9-3.1
				c-1.7,0.4,1.2,9.3,1.9,10.7c2.8,5.3,14.2,22.5,38,3.2C400.8,262.8,414.9,220.5,388,208.2z"/>
			<path class="st1" d="M372.3,301c-23.3-2.1-25-21.8-24.4-32.1c0.4-5.1,1.4-10.1,2.9-14.9c2.2-7.1,5.1-12.2,8-19.4
				c0,0-19.3-9.8-27.9,9.4c-4.6,10.2-8.8,57.6,26.4,84.3C376.6,318.4,372.3,301,372.3,301z"/>
			<path class="st1" d="M422.1,179.5c4.6,10.4,16.8,23.5,8.1,25.4c-13.6,3-19.2-14.9-19.2-14.9c-9.2-29.1,5-67.8,15-68.3
				c8-0.4,6.5,17.1-0.4,26.9l1,0.4c7.9,3.3,20.5-1.4,24.1-9.3c0.1-0.1,0.1-0.2,0.1-0.3c-3.9-36.3-40.6-29.2-52.6-10.7
				c-5.9,9-15,28.8-9.3,59.9c2.7,14.6,15.6,25,31.9,25c8.3,0,17.3-1.4,24.8-6.2c13.9-8.8,3.9-25.4,1.1-35.2
				C438.4,170.8,426.8,174.7,422.1,179.5z"/>
			<path class="st1" d="M390.5,162.2c-2,7.1-19.2,34.1-24,15.4c-1.2-4.8,5.4-18.8,9.1-24.1c3.5-5-1.5-17.4-3.9-21.4l0,0
				c-3.7-5.9-16.6,6.6-16.6,6.6l-7.3,7.3c-11.2,11.5-24.6,26.7-34.8,42.4c-1.6,2.5-4.5,3.1-5.6,1.1c-0.6-1.1-0.6-2.4-0.1-3.6
				c1.9-5.4,15.2-34.2,24.6-49.8l-16-11.2c-1.5,2.6-10.3,19.1-11.9,21.7c-10.7,17.3-14.9,30.9-2.5,54.2l4.5,7.6
				c4.7,6.5,13.6,4.7,19.8-4.9c11.5-17.9,21.6-29.7,32.5-36.5l0,0c-14.5,31.2,9.2,30.6,9.2,30.6c18.3,0.9,34.4-29.4,34.4-29.4
				C402,168.1,390.5,162.2,390.5,162.2z"/>
			<path class="st1" d="M558.6,129.2c1.1-25.8,40.7-32.5,61.4-25.2c7,2.5,5.9,11.8,4.2,17c-3.4,10-19.8,20.3-19.8,20.3
				s16.9-5.5,18.1,18.9c1,20.1-17,45.6-36.9,57.4c-9.3,5.5-21,6-28.3-0.6c-4.2-4.1-6.9-9.5-7.7-15.3c-2.2-18.3,6.3-45,17.2-49.7
				c14.5-6.2,15.6,10.1,15.6,10.1s-18.5,2.7-23.6,37.3c-0.8,5.8,4.7,10.1,9,6.7c21.5-16.7,30.7-31.3,36.9-42.5
				c4-7.2,0.9-15.5-6-13.7c-3.3,0.8-6.6,1.8-9.8,3l-6.2-13.7c0,0,29-14.6,29.6-22.6c1-12-43.7,3.2-38.7,25.3
				C573.6,141.8,558.1,141.2,558.6,129.2z"/>
			<path class="st1" d="M288,112.1c-6.3-4.2-13.6-6.5-21.2-6.7l0,0c-22.6-1.7-53.5,8.2-51.5,25.7c1.1,10.1,16.1,10.5,16.1,10.5
				c-0.7-5.4,2.2-10.6,6.5-15v0.1c0,0,20.8-20.6,44.5-8.2c13.7,7.1-14.2,50.4-35.7,43.8c-5.7-1.7-8-5.1-10.2-5
				c-1.7,0.1-0.4,9.4,0,10.9c1.8,5.7,10.1,24.6,36.9,9.8C291.1,168.1,312.4,128.9,288,112.1z"/>
			<path class="st1" d="M267.6,201.4c-21.2,0.7-20.7-20.3-18.6-32.8c1.4-5.9,3.5-11.7,6.2-17.1c3.4-6.6,7.1-11.1,11.2-17.7
				c0,0-17.3-13-29.1,4.4c-6.3,9.2-18.5,54.2,10.4,86.7l0.2,0.9l0.4-0.1l0.1,0.2c0,0,0-0.1,0-0.2C268.8,219,267.6,201.4,267.6,201.4
				z"/>
			<path class="st1" d="M535.8,177.3L535.8,177.3c-3.7,2-7,1.2-8.7-5.5c-1.2-4.6,5.4-18.4,9.1-23.5c3.5-4.9-1.5-16.9-3.9-20.9l0,0
				c-6.3-9.7-16.6,6.5-16.6,6.5l-7.3-12c-4.4-7.2-25.7-10-31.8-0.8c-4.4,6.6-8.4,13.5-12,20.6c-9.9,18.5-10.8,39.1-2.5,52.9l4.5,7.4
				c4.5,7.4,12.6,5.9,19.8-4.7c11.6-17.3,21.6-29,32.5-35.6l0,0c-10.6,22.3-0.8,27.9,5.3,29.3C535.7,192.4,535.8,177.3,535.8,177.3z
				 M473.6,182.5c-1.6,2.4-4.5,3-5.6,1.1c-0.6-1.1-0.6-2.4-0.1-3.5c2.6-7.1,11.9-31,27.9-50.5c2-2.5,5.1-2.8,6.3-0.5l6.3,12.1
				C497.2,152.3,483.8,167.1,473.6,182.5L473.6,182.5z"/>
			<path class="st1" d="M705.9,183.2L705.9,183.2c-3.7,2-7,1.2-8.7-5.5c-1.2-4.6,5.4-18.3,9.1-23.5c3.5-4.9-1.5-16.9-3.9-20.9l0,0
				c-6.3-9.7-16.6,6.5-16.6,6.5l-7.3-12c-4.4-7.2-25.7-10-31.7-0.8c-4.4,6.6-8.4,13.5-12,20.6c-9.9,18.5-10.8,39.1-2.5,52.9l4.5,7.4
				c4.5,7.4,12.6,5.9,19.8-4.7c11.6-17.3,21.6-29,32.5-35.6l0,0c-10.6,22.3-0.8,27.9,5.3,29.3C705.8,198.2,705.9,183.2,705.9,183.2z
				 M643.7,188.3c-1.6,2.4-4.5,3-5.6,1.1c-0.6-1.1-0.6-2.3-0.1-3.5c2.6-7.1,11.9-31,27.9-50.5c2.1-2.5,5.1-2.8,6.3-0.5l6.3,12
				C667.2,158.2,653.8,173,643.7,188.3z"/>
			<path class="st1" d="M470.4,258.4C458.4,285.6,435.8,298,430,298c-2,0-7.7-0.3-3.1-8.8c2.9-5.4,30.8-38.9,40.3-55.7l-16-12.1l0,0
				c-6.5,10.9-27.1,17.9-49,4.5c0,0-4.8,19.1,14.3,26.9c7.5,3.1,17.8-0.5,25.4-6c-6.2,11.2-37.5,35.5-42.3,48.4
				c-8.1,21.8,28.5,31.4,51.9,15.5c2-1.4,22.8-17.8,25.7-41.8C473.8,264.8,473.7,262.5,470.4,258.4z"/>
			<g id="fabric">
				<path class="st2" d="M806.2,168.4c-0.3-1.1-25-21.3-26-21.9l-40.8-30.2c3,22,2.7,28.3-7.3,48L576.5,86.2
					c8.5-15.3,5.5-22,16.4-35.6c3.2-4,21.9-17.6,25.9-20.7c4.5-3.5,9.8-5.9,15-8.1c17-7.2,34.3-13.5,52-18.9
					c6-1.8,12.2-3.5,18.3-2.5c5.3,0.9,10.1,3.9,14.8,6.7c8.6,5.3,8.5,5.3,17,10.6c2.4,1.5,12.4,8.6,14.3,10.6
					c2.4,2.7,4.6,5.7,6.5,8.8c15.9,30.1,30.6,57.6,44.6,88.6c0.7,1.6,13.3,26.4,13.4,28.1"/>
				<path class="st3" d="M716,160c-1.1,3.4-2.5,6.8-4.2,10l9.3-7.8c10-19.7,21.3-23.9,18.3-45.9l40.8,30.2
					c0.9,0.7,26.9,22.3,26.9,22.3s-21.9-22.6-22-22.6c-25.3-22.4-29.3-37-41.2-51.4l-10.3-31.4c-0.1-0.4-15.3,2.9-15.3,3.3
					c0,14.5-10.9,42.4-16.7,64.5"/>
			</g>
			<g id="fur_ball">
				<path class="st1" d="M790.8,179c-5,1.4-10.2,1.4-15.2,0c0.9-1.4,1.8-2.8,2.8-4.2c-4.7-3.8-10.9-5-16.7-3.4
					c-0.4-6.6-0.8-13.3,1-19.7s6.1-12.4,12.5-14.4c-3.2-1.4-6.8-1.5-10-0.1c4.8-10.3,17-14.9,27.3-10.1c0.7,0.3,1.4,0.7,2.1,1.1
					c-0.5-3.2-1.7-6.2-3.5-8.9c4.6,1.8,8.7,4.9,11.5,9c3.3-1.3,6.8-2.1,10.4-2.4l-3.6,8.4c9,2.4,16.2,9.2,19.2,18l-6.7-0.2
					c4.3,12.3-1.5,27.3-13,33.5c0.2-2.5-0.1-5.1-0.8-7.5c-5.7,2.6-11.6,4.9-17.6,6.8l0.6-5.8"/>
				<path class="st4" d="M762.7,151.6c1.8-6.4,6.1-12.4,12.5-14.4c-3.2-1.4-6.8-1.5-10-0.1c4.5-9.7,15.6-14.4,25.7-10.7
					c-3.7,1.2-7.2,2.7-10.6,4.6c2.9,1.1,5.7,2.5,8.4,4.1l-8.1,4.3c1,0.4,1.7,1.2,2.2,2.1c-4.6,1.5-8.2,5.1-10.6,9.3
					c-2.2,4.3-3.8,8.9-4.5,13.7c6.9-1.5,13.5,2.8,19.3,7l-2.3,3.3c4.6-0.2,9.3,0.1,13.8,0.9c-1.9,3.2-4.4,6-7.5,8.1
					c0.2-1.6,0.3-3.1,0.5-4.7l-0.3-0.2c-5,1.4-10.2,1.4-15.2,0c0.9-1.4,1.9-2.8,2.8-4.2c-4.7-3.8-10.9-5-16.7-3.4
					C761.3,164.8,760.9,158,762.7,151.6z"/>
			</g>
			<g id="fur">
				<path class="st1" d="M605.3,47.9C625.6,50,658,59,700.9,82.2c6.3,3.4,11.8,8.2,17.4,12.8c22,18.4,43.8,38.6,31.1,57.9
					c-15.4,28.3-31.2,21.8-38.1,19.8c-11.8-3.4-25.1-21.6-34.4-29.4c-7.5-6.4-29.5-21.3-89.1-34.3c-20.8-4.1-35.4-5.9-34-21.2
					c0.4-5.2,2-10.2,4.5-14.7C563.9,62.9,572.8,45,605.3,47.9z"/>
			</g>
			<path class="st4" d="M605.3,47.9c0,0-28.7,6.4-29.1,24.5s29.2,10.1,69.4,28.3s64,51.6,76.9,53s33-4.9,29.4-20.4
				c0,0,6.3,7.6,0.1,19.3s-19.4,27.8-40.1,22s-31.3-33.1-58.7-42.3s-46.8-20.5-77.3-23.6s-24.3-19.8-23.7-25S563.3,41.2,605.3,47.9z
				"/>
			
				<ellipse transform="matrix(0.7381 -0.6747 0.6747 0.7381 -71.1101 172.3272)" class="st5" cx="186.4" cy="177.8" rx="12.3" ry="20.8"/>
			
				<ellipse transform="matrix(0.6232 -0.7821 0.7821 0.6232 101.1251 401.7375)" class="st6" cx="467.5" cy="95.9" rx="20.8" ry="12.3"/>
			
				<ellipse transform="matrix(0.6232 -0.7821 0.7821 0.6232 -142.1237 367.0145)" class="st7" cx="309.8" cy="331" rx="20.8" ry="12.3"/>
			
				<ellipse transform="matrix(0.9813 -0.1924 0.1924 0.9813 -54.1291 9.2353)" class="st6" cx="20.5" cy="283.4" rx="20.8" ry="12.3"/>
			
				<ellipse transform="matrix(0.9087 -0.4174 0.4174 0.9087 0.4176 370.6491)" class="st7" cx="847.7" cy="184.4" rx="20.8" ry="12.3"/>
			<ellipse transform="matrix(0.866 -0.5 0.5 0.866 -71.3714 397.1536)" class="st5" cx="705.4" cy="331.8" rx="12.3" ry="20.8"/>
		</g>
	</g>
</g>
</svg>
